<mxfile host="Electron" agent="Mozilla/5.0 (X11; Linux x86_64) AppleWebKit/537.36 (KHTML, like Gecko) draw.io/27.0.9 Chrome/134.0.6998.205 Electron/35.4.0 Safari/537.36" version="27.0.9">
  <diagram name="Page-1" id="gOBfrfqAxr7Yk2jaT-1e">
    <mxGraphModel dx="3510" dy="2857" grid="1" gridSize="10" guides="1" tooltips="1" connect="1" arrows="1" fold="1" page="1" pageScale="1" pageWidth="850" pageHeight="1100" math="0" shadow="0">
      <root>
        <mxCell id="0" />
        <mxCell id="1" parent="0" />
        <mxCell id="SGOabfZ179OGN8gNY-lS-15" value="TODO:&lt;br&gt;accept more than english letters" style="rounded=1;whiteSpace=wrap;html=1;fillColor=#e51400;fontColor=#ffffff;strokeColor=#B20000;" vertex="1" parent="1">
          <mxGeometry x="117.5" y="750" width="55" height="190" as="geometry" />
        </mxCell>
        <mxCell id="SGOabfZ179OGN8gNY-lS-1" value="&amp;lt;empty&amp;gt;&lt;div&gt;Nearly everything connects to &amp;lt;emtpy&amp;gt; so that relation is not represented&lt;/div&gt;" style="rounded=1;whiteSpace=wrap;html=1;" vertex="1" parent="1">
          <mxGeometry x="-460" y="910" width="250" height="110" as="geometry" />
        </mxCell>
        <mxCell id="SGOabfZ179OGN8gNY-lS-2" value="BASIC SYMBOLS" style="rounded=1;whiteSpace=wrap;html=1;fillColor=#f0a30a;fontColor=#000000;strokeColor=#BD7000;" vertex="1" parent="1">
          <mxGeometry x="-790" y="520" width="1870" height="20" as="geometry" />
        </mxCell>
        <mxCell id="SGOabfZ179OGN8gNY-lS-3" value="&amp;lt;digit&amp;gt;" style="rounded=1;whiteSpace=wrap;html=1;" vertex="1" parent="1">
          <mxGeometry x="-380" y="850" width="90" height="40" as="geometry" />
        </mxCell>
        <mxCell id="SGOabfZ179OGN8gNY-lS-4" value="&amp;lt;letter&amp;gt;" style="rounded=1;whiteSpace=wrap;html=1;" vertex="1" parent="1">
          <mxGeometry x="-70" y="810" width="90" height="40" as="geometry" />
        </mxCell>
        <mxCell id="SGOabfZ179OGN8gNY-lS-6" value="&amp;lt;letterCapital&amp;gt;&lt;div&gt;(english)&lt;/div&gt;" style="rounded=1;whiteSpace=wrap;html=1;" vertex="1" parent="1">
          <mxGeometry x="-140" y="930" width="90" height="40" as="geometry" />
        </mxCell>
        <mxCell id="SGOabfZ179OGN8gNY-lS-7" value="&amp;lt;letterSmall&amp;gt;&lt;div&gt;(english)&lt;/div&gt;" style="rounded=1;whiteSpace=wrap;html=1;" vertex="1" parent="1">
          <mxGeometry y="930" width="90" height="40" as="geometry" />
        </mxCell>
        <mxCell id="SGOabfZ179OGN8gNY-lS-8" value="" style="endArrow=classic;html=1;rounded=0;" edge="1" parent="1" source="SGOabfZ179OGN8gNY-lS-6" target="SGOabfZ179OGN8gNY-lS-4">
          <mxGeometry width="50" height="50" relative="1" as="geometry">
            <mxPoint x="-315" y="1140" as="sourcePoint" />
            <mxPoint x="-265" y="1090" as="targetPoint" />
          </mxGeometry>
        </mxCell>
        <mxCell id="SGOabfZ179OGN8gNY-lS-9" value="" style="endArrow=classic;html=1;rounded=0;" edge="1" parent="1" source="SGOabfZ179OGN8gNY-lS-7" target="SGOabfZ179OGN8gNY-lS-4">
          <mxGeometry width="50" height="50" relative="1" as="geometry">
            <mxPoint x="215" y="1060" as="sourcePoint" />
            <mxPoint x="259" y="990" as="targetPoint" />
          </mxGeometry>
        </mxCell>
        <mxCell id="SGOabfZ179OGN8gNY-lS-11" value="&amp;lt;anyUnicodeChar&amp;gt;&lt;div&gt;TODO: use ANY unicode chars,&lt;/div&gt;&lt;div&gt;not only English letters&lt;/div&gt;" style="rounded=1;whiteSpace=wrap;html=1;" vertex="1" parent="1">
          <mxGeometry x="215" y="875" width="210" height="50" as="geometry" />
        </mxCell>
        <mxCell id="SGOabfZ179OGN8gNY-lS-12" value="" style="endArrow=classic;html=1;rounded=0;" edge="1" parent="1" source="SGOabfZ179OGN8gNY-lS-4" target="SGOabfZ179OGN8gNY-lS-11">
          <mxGeometry width="50" height="50" relative="1" as="geometry">
            <mxPoint x="305" y="930" as="sourcePoint" />
            <mxPoint x="355" y="880" as="targetPoint" />
          </mxGeometry>
        </mxCell>
        <mxCell id="SGOabfZ179OGN8gNY-lS-13" value="&amp;lt;anyUnicodeCharExceptDoubleQuote&amp;gt;&lt;div&gt;TODO: accept ANY unicode char except double quote&lt;/div&gt;" style="rounded=1;whiteSpace=wrap;html=1;" vertex="1" parent="1">
          <mxGeometry x="205" y="770" width="260" height="60" as="geometry" />
        </mxCell>
        <mxCell id="SGOabfZ179OGN8gNY-lS-14" value="" style="endArrow=classic;html=1;rounded=0;" edge="1" parent="1" source="SGOabfZ179OGN8gNY-lS-4" target="SGOabfZ179OGN8gNY-lS-13">
          <mxGeometry width="50" height="50" relative="1" as="geometry">
            <mxPoint x="-95" y="890" as="sourcePoint" />
            <mxPoint x="-45" y="840" as="targetPoint" />
          </mxGeometry>
        </mxCell>
        <mxCell id="SGOabfZ179OGN8gNY-lS-16" value="&amp;lt;anyUnicodeCharExceptSingleQuote&amp;gt;&lt;div&gt;TODO: accept ANY unicode char except double quote&lt;/div&gt;" style="rounded=1;whiteSpace=wrap;html=1;" vertex="1" parent="1">
          <mxGeometry x="205" y="650" width="260" height="60" as="geometry" />
        </mxCell>
        <mxCell id="SGOabfZ179OGN8gNY-lS-17" value="" style="endArrow=classic;html=1;rounded=0;" edge="1" parent="1" source="SGOabfZ179OGN8gNY-lS-4" target="SGOabfZ179OGN8gNY-lS-16">
          <mxGeometry width="50" height="50" relative="1" as="geometry">
            <mxPoint x="-245" y="880" as="sourcePoint" />
            <mxPoint x="-195" y="830" as="targetPoint" />
          </mxGeometry>
        </mxCell>
        <mxCell id="SGOabfZ179OGN8gNY-lS-19" value="&amp;lt;atomCharList_inQuotes" style="rounded=1;whiteSpace=wrap;html=1;" vertex="1" parent="1">
          <mxGeometry x="235" y="280" width="190" height="40" as="geometry" />
        </mxCell>
        <mxCell id="SGOabfZ179OGN8gNY-lS-20" value="" style="endArrow=classic;html=1;rounded=0;" edge="1" parent="1" source="SGOabfZ179OGN8gNY-lS-16" target="SGOabfZ179OGN8gNY-lS-19">
          <mxGeometry width="50" height="50" relative="1" as="geometry">
            <mxPoint x="160" y="460" as="sourcePoint" />
            <mxPoint x="210" y="410" as="targetPoint" />
          </mxGeometry>
        </mxCell>
        <mxCell id="SGOabfZ179OGN8gNY-lS-23" value="" style="curved=1;endArrow=classic;html=1;rounded=0;entryX=0.916;entryY=0.05;entryDx=0;entryDy=0;entryPerimeter=0;exitX=0.884;exitY=0.95;exitDx=0;exitDy=0;exitPerimeter=0;" edge="1" parent="1" source="SGOabfZ179OGN8gNY-lS-19" target="SGOabfZ179OGN8gNY-lS-19">
          <mxGeometry width="50" height="50" relative="1" as="geometry">
            <mxPoint x="640" y="290" as="sourcePoint" />
            <mxPoint x="690" y="240" as="targetPoint" />
            <Array as="points">
              <mxPoint x="450" y="380" />
              <mxPoint x="530" y="300" />
              <mxPoint x="470" y="230" />
            </Array>
          </mxGeometry>
        </mxCell>
        <mxCell id="SGOabfZ179OGN8gNY-lS-24" value="&amp;lt;atomInQuotes&amp;gt;" style="rounded=1;whiteSpace=wrap;html=1;" vertex="1" parent="1">
          <mxGeometry x="270" y="130" width="120" height="60" as="geometry" />
        </mxCell>
        <mxCell id="SGOabfZ179OGN8gNY-lS-25" value="" style="endArrow=classic;html=1;rounded=0;" edge="1" parent="1" source="SGOabfZ179OGN8gNY-lS-19" target="SGOabfZ179OGN8gNY-lS-24">
          <mxGeometry width="50" height="50" relative="1" as="geometry">
            <mxPoint x="10" y="340" as="sourcePoint" />
            <mxPoint x="60" y="290" as="targetPoint" />
          </mxGeometry>
        </mxCell>
        <mxCell id="SGOabfZ179OGN8gNY-lS-26" value="&amp;lt;atom&amp;gt;" style="rounded=1;whiteSpace=wrap;html=1;" vertex="1" parent="1">
          <mxGeometry x="-80" y="-10" width="120" height="60" as="geometry" />
        </mxCell>
        <mxCell id="SGOabfZ179OGN8gNY-lS-27" value="" style="endArrow=classic;html=1;rounded=0;" edge="1" parent="1" source="SGOabfZ179OGN8gNY-lS-24" target="SGOabfZ179OGN8gNY-lS-26">
          <mxGeometry width="50" height="50" relative="1" as="geometry">
            <mxPoint x="70" y="170" as="sourcePoint" />
            <mxPoint x="120" y="120" as="targetPoint" />
          </mxGeometry>
        </mxCell>
      </root>
    </mxGraphModel>
  </diagram>
</mxfile>
